<svg width="360" height="125" viewBox="0 0 360 125" fill="none" xmlns="http://www.w3.org/2000/svg">
<path d="M344.137 70.4083H359.736L338.887 104.192V124.279H325.115V104.268L304.419 70.4083H320.322L332.039 91.7893L344.137 70.4083Z" fill="white"/>
<path d="M279.733 70.4083C282.168 70.4083 284.653 70.6366 287.19 71.0931C289.777 71.499 292.11 72.3359 294.19 73.6041C296.27 74.8722 297.994 76.673 299.364 79.0064C300.734 81.3398 301.444 84.3833 301.494 88.1371C301.393 91.6879 300.531 94.8582 298.907 97.6482C297.335 100.438 294.672 102.543 290.918 103.964L303.397 124.279H287.722L277.374 106.094H270.755V124.279H256.982V70.4083H279.733ZM279.809 93.9959C282.396 93.9959 284.374 93.514 285.744 92.5502C287.164 91.5864 287.875 90.1915 287.875 88.3653C287.875 87.2494 287.672 86.3617 287.266 85.7022C286.86 85.0428 286.302 84.5355 285.592 84.1804C284.882 83.7746 284.045 83.521 283.081 83.4196C282.117 83.2674 281.103 83.1913 280.037 83.1913H270.755V93.9959H279.809Z" fill="white"/>
<path d="M222.267 69.7235C226.325 69.7235 230.028 70.383 233.376 71.7018C236.775 72.97 239.666 74.7961 242.05 77.1802C244.485 79.5136 246.362 82.3797 247.681 85.7783C249.05 89.1262 249.735 92.8799 249.735 97.0394C249.735 101.148 249.076 104.927 247.757 108.377C246.438 111.775 244.561 114.717 242.126 117.203C239.692 119.638 236.775 121.54 233.376 122.91C230.028 124.229 226.3 124.888 222.191 124.888C217.981 124.888 214.176 124.229 210.778 122.91C207.379 121.591 204.462 119.739 202.028 117.355C199.643 114.92 197.792 112.004 196.473 108.605C195.205 105.206 194.571 101.427 194.571 97.2677C194.571 93.1082 195.23 89.3291 196.549 85.9305C197.919 82.5318 199.821 79.6405 202.256 77.2563C204.691 74.8722 207.607 73.0207 211.006 71.7018C214.405 70.383 218.158 69.7235 222.267 69.7235ZM208.647 97.1916C208.647 99.0178 208.901 100.819 209.408 102.594C209.966 104.319 210.803 105.891 211.919 107.311C213.035 108.681 214.455 109.797 216.18 110.659C217.955 111.471 220.086 111.877 222.572 111.877C224.905 111.877 226.883 111.446 228.506 110.583C230.18 109.67 231.55 108.529 232.615 107.159C233.68 105.739 234.441 104.192 234.898 102.518C235.405 100.793 235.659 99.0938 235.659 97.4199C235.659 95.8474 235.431 94.1988 234.974 92.4741C234.517 90.6987 233.757 89.1008 232.691 87.6805C231.626 86.2602 230.231 85.0935 228.506 84.1804C226.832 83.2166 224.778 82.7347 222.343 82.7347C219.908 82.7347 217.803 83.1659 216.028 84.0282C214.303 84.8906 212.883 86.0066 211.767 87.3762C210.702 88.7458 209.915 90.2929 209.408 92.0176C208.901 93.7423 208.647 95.4669 208.647 97.1916Z" fill="white"/>
<path d="M146.231 83.1913V70.4083H192.036V83.1913H175.982V124.279H162.21V83.1913H146.231Z" fill="white"/>
<path d="M107.372 97.1916C107.372 98.9163 107.6 100.666 108.057 102.442C108.514 104.166 109.224 105.739 110.187 107.159C111.202 108.529 112.521 109.67 114.144 110.583C115.767 111.446 117.746 111.877 120.079 111.877C123.072 111.877 125.481 111.217 127.307 109.898C129.134 108.58 130.326 106.703 130.884 104.268H144.199C143.946 107.667 143.109 110.659 141.688 113.246C140.268 115.833 138.442 117.989 136.21 119.714C134.029 121.439 131.518 122.732 128.677 123.594C125.887 124.457 122.97 124.888 119.927 124.888C115.767 124.888 112.014 124.254 108.666 122.986C105.369 121.718 102.553 119.891 100.22 117.507C97.9372 115.123 96.1871 112.232 94.9697 108.833C93.7523 105.384 93.1436 101.529 93.1436 97.2677C93.1436 93.0575 93.7776 89.253 95.0458 85.8544C96.3139 82.4557 98.1147 79.5644 100.448 77.1802C102.781 74.7961 105.597 72.97 108.894 71.7018C112.191 70.383 115.843 69.7235 119.851 69.7235C122.945 69.7235 125.862 70.1547 128.601 71.017C131.391 71.8794 133.826 73.1729 135.906 74.8976C138.036 76.5715 139.761 78.702 141.08 81.2891C142.449 83.8761 143.286 86.9196 143.59 90.4197H130.579C129.971 87.9849 128.804 86.108 127.079 84.7891C125.405 83.4195 123.046 82.7347 120.003 82.7347C117.67 82.7347 115.691 83.1659 114.068 84.0282C112.445 84.8399 111.126 85.9305 110.111 87.3001C109.148 88.6697 108.437 90.2168 107.981 91.9415C107.575 93.6662 107.372 95.4162 107.372 97.1916Z" fill="white"/>
<path d="M51.4483 124.279H36.687L58.2963 70.4083H72.2966L93.6776 124.279H78.8403L76.1771 116.67H54.1875L51.4483 124.279ZM71.8401 104.268L65.2964 85.7783L58.5245 104.268H71.8401Z" fill="white"/>
<path d="M39.5313 70.4083V83.1913H13.5089V93.0068H34.966V105.638H13.5089V124.279H-0.263184V70.4083H39.5313Z" fill="white"/>
<path d="M220.79 0.472893H236.388L215.54 34.2564V54.3438H201.767V34.3324L181.071 0.472893H196.974L208.692 21.8539L220.79 0.472893Z" fill="white"/>
<path d="M139.435 0.472893L162.186 31.2889V0.472893H175.958V54.3438H163.479L140.348 23.9844V54.3438H126.576V0.472893H139.435Z" fill="white"/>
<path d="M79.6099 54.3438H64.8486L86.4579 0.472893H100.458L121.839 54.3438H107.002L104.339 46.7349H82.3491L79.6099 54.3438ZM100.002 34.3324L93.4581 15.8428L86.6861 34.3324H100.002Z" fill="white"/>
<path d="M17.1612 0.4729L30.3246 24.0605L43.4118 0.4729H60.1514V54.3438H46.3793V20.0277L32.7594 43.6914H27.3571L13.5089 20.0277V54.3438H-0.263184V0.4729H17.1612Z" fill="white"/>
</svg>
