<svg width="1920" height="170" viewBox="0 0 1920 170" fill="none" xmlns="http://www.w3.org/2000/svg">
<path d="M1871.99 2.16356H1920L1855.83 106.149V167.978H1813.44V106.383L1749.74 2.16356H1798.68L1834.75 67.974L1871.99 2.16356Z" fill="white"/>
<path d="M1673.75 2.16356C1681.25 2.16356 1688.9 2.86616 1696.71 4.27136C1704.67 5.52043 1711.85 8.09664 1718.25 12C1724.65 15.9033 1729.96 21.4461 1734.18 28.6283C1738.39 35.8104 1740.58 45.1785 1740.74 56.7324C1740.42 67.6618 1737.77 77.4202 1732.77 86.0075C1727.93 94.5949 1719.74 101.074 1708.18 105.446L1746.59 167.978H1698.35L1666.49 112.004H1646.12V167.978H1603.73V2.16356H1673.75ZM1673.99 74.7659C1681.95 74.7659 1688.04 73.2826 1692.26 70.3161C1696.63 67.3495 1698.81 63.0558 1698.81 57.435C1698.81 54 1698.19 51.2677 1696.94 49.238C1695.69 47.2082 1693.97 45.6469 1691.79 44.5539C1689.6 43.3049 1687.03 42.5242 1684.06 42.2119C1681.09 41.7435 1677.97 41.5093 1674.69 41.5093H1646.12V74.7659H1673.99Z" fill="white"/>
<path d="M1496.87 0.0557556C1509.36 0.0557556 1520.76 2.08549 1531.07 6.14497C1541.53 10.0483 1550.43 15.6692 1557.77 23.0075C1565.26 30.1896 1571.04 39.0112 1575.1 49.4722C1579.31 59.777 1581.42 71.3309 1581.42 84.1339C1581.42 96.7808 1579.39 108.413 1575.33 119.03C1571.27 129.491 1565.49 138.547 1558 146.197C1550.51 153.692 1541.53 159.547 1531.07 163.762C1520.76 167.822 1509.29 169.851 1496.64 169.851C1483.68 169.851 1471.97 167.822 1461.51 163.762C1451.05 159.703 1442.07 154.004 1434.58 146.666C1427.24 139.171 1421.54 130.193 1417.48 119.732C1413.58 109.271 1411.62 97.6395 1411.62 84.8365C1411.62 72.0335 1413.65 60.4015 1417.71 49.9406C1421.93 39.4796 1427.78 30.5799 1435.28 23.2416C1442.77 15.9034 1451.75 10.2045 1462.21 6.14497C1472.67 2.08549 1484.23 0.0557556 1496.87 0.0557556ZM1454.95 84.6023C1454.95 90.2231 1455.73 95.7659 1457.29 101.231C1459.01 106.539 1461.59 111.379 1465.02 115.751C1468.46 119.967 1472.83 123.402 1478.14 126.056C1483.6 128.554 1490.16 129.803 1497.81 129.803C1504.99 129.803 1511.08 128.476 1516.08 125.822C1521.23 123.011 1525.45 119.498 1528.72 115.283C1532 110.911 1534.35 106.149 1535.75 100.996C1537.31 95.6878 1538.09 90.4573 1538.09 85.3049C1538.09 80.4648 1537.39 75.3904 1535.99 70.0819C1534.58 64.6172 1532.24 59.6989 1528.96 55.3272C1525.68 50.9554 1521.39 47.3644 1516.08 44.5539C1510.93 41.5874 1504.6 40.1041 1497.11 40.1041C1489.61 40.1041 1483.13 41.4313 1477.67 44.0855C1472.36 46.7398 1467.99 50.1748 1464.55 54.3904C1461.27 58.606 1458.85 63.3681 1457.29 68.6766C1455.73 73.9852 1454.95 79.2938 1454.95 84.6023Z" fill="white"/>
<path d="M1262.84 41.5093V2.16356H1403.82V41.5093H1354.41V167.978H1312.02V41.5093H1262.84Z" fill="white"/>
<path d="M1143.23 84.6023C1143.23 89.9109 1143.93 95.2975 1145.34 100.762C1146.74 106.071 1148.93 110.911 1151.89 115.283C1155.02 119.498 1159.08 123.011 1164.07 125.822C1169.07 128.476 1175.16 129.803 1182.34 129.803C1191.55 129.803 1198.97 127.773 1204.59 123.714C1210.21 119.654 1213.88 113.877 1215.6 106.383H1256.58C1255.8 116.844 1253.22 126.056 1248.85 134.019C1244.48 141.982 1238.86 148.617 1231.99 153.926C1225.28 159.234 1217.55 163.216 1208.8 165.87C1200.22 168.524 1191.24 169.851 1181.87 169.851C1169.07 169.851 1157.51 167.9 1147.21 163.996C1137.06 160.093 1128.4 154.472 1121.21 147.134C1114.19 139.796 1108.8 130.896 1105.05 120.435C1101.31 109.818 1099.43 97.9518 1099.43 84.8365C1099.43 71.8774 1101.38 60.1673 1105.29 49.7064C1109.19 39.2454 1114.73 30.3457 1121.92 23.0075C1129.1 15.6692 1137.76 10.0483 1147.91 6.14497C1158.06 2.08549 1169.3 0.0557556 1181.64 0.0557556C1191.16 0.0557556 1200.14 1.38289 1208.57 4.03716C1217.16 6.69144 1224.65 10.6729 1231.05 15.9814C1237.61 21.1338 1242.92 27.6915 1246.98 35.6543C1251.2 43.6171 1253.77 52.9852 1254.71 63.7584H1214.66C1212.79 56.264 1209.2 50.487 1203.89 46.4275C1198.73 42.2119 1191.47 40.1041 1182.11 40.1041C1174.92 40.1041 1168.83 41.4313 1163.84 44.0855C1158.84 46.5837 1154.78 49.9406 1151.66 54.1562C1148.69 58.3718 1146.51 63.1339 1145.1 68.4425C1143.85 73.751 1143.23 79.1376 1143.23 84.6023Z" fill="white"/>
<path d="M971.094 167.978H925.659L992.172 2.16356H1035.27L1101.08 167.978H1055.41L1047.21 144.558H979.525L971.094 167.978ZM1033.86 106.383L1013.72 49.4722L992.875 106.383H1033.86Z" fill="white"/>
<path d="M934.414 2.16356V41.5093H854.317V71.7213H920.362V110.599H854.317V167.978H811.927V2.16356H934.414Z" fill="white"/>
<path d="M680.4 2.16356H728.411L664.24 106.149V167.978H621.849V106.383L558.147 2.16356H607.095L643.162 67.974L680.4 2.16356Z" fill="white"/>
<path d="M429.992 2.16356L500.018 97.015V2.16356H542.408V167.978H503.999L432.802 74.5317V167.978H390.411V2.16356H429.992Z" fill="white"/>
<path d="M245.849 167.978H200.414L266.927 2.16356H310.02L375.83 167.978H330.161L321.964 144.558H254.28L245.849 167.978ZM308.615 106.383L288.473 49.4722L267.63 106.383H308.615Z" fill="white"/>
<path d="M53.632 2.16356L94.1488 74.7659L134.431 2.16356H185.956V167.978H143.565V62.3532L101.643 135.19H85.015L42.3904 62.3532V167.978H0V2.16356H53.632Z" fill="white"/>
</svg>
