<svg xmlns="http://www.w3.org/2000/svg" width="153" height="31" fill="none"><path fill="#ECB355" d="M.32 23 8.736.376h4L21.12 23h-3.008l-1.792-4.864H5.12L3.328 23H.32Zm5.728-7.392h9.344l-4.672-12.8-4.672 12.8ZM19.581 23V6.136h2.625l.128 2.624c.426-.661.917-1.195 1.471-1.6a6.15 6.15 0 0 1 1.889-.896 7.798 7.798 0 0 1 2.271-.32h.864v2.56h-.992c-1.322 0-2.4.288-3.232.864-.81.555-1.397 1.312-1.76 2.272-.362.939-.543 1.984-.543 3.136V23h-2.72Zm14.274.192c-1.77 0-3.019-.48-3.744-1.44-.704-.96-1.056-2.325-1.056-4.096v-9.12h-2.752v-2.4h2.752V1.08h2.72v5.056h5.184v2.4h-5.184v8.768c0 .64.053 1.227.16 1.76.107.512.33.928.672 1.248.341.299.853.459 1.536.48.49 0 .917-.085 1.28-.256.384-.17.704-.373.96-.608l1.184 1.984a5.54 5.54 0 0 1-1.152.736c-.384.192-.79.33-1.216.416a6.538 6.538 0 0 1-1.344.128Zm9.648 0c-1.792 0-3.275-.363-4.449-1.088-1.173-.747-2.047-1.77-2.623-3.072-.576-1.301-.864-2.784-.864-4.448 0-1.685.298-3.168.895-4.448.62-1.301 1.515-2.325 2.688-3.072 1.174-.747 2.614-1.12 4.32-1.12 1.323 0 2.454.256 3.392.768.96.49 1.75 1.152 2.368 1.984a8.263 8.263 0 0 1 1.345 2.752c.277.981.394 1.973.351 2.976-.02.192-.042.384-.064.576 0 .192-.01.384-.032.576H38.32c.085.981.33 1.867.735 2.656.406.79.982 1.419 1.728 1.888.747.448 1.675.672 2.785.672.554 0 1.109-.064 1.663-.192a4.275 4.275 0 0 0 1.537-.736c.469-.341.8-.8.991-1.376h2.784c-.256 1.088-.736 1.984-1.44 2.688a6.774 6.774 0 0 1-2.527 1.536c-.982.32-2.006.48-3.073.48Zm-5.12-9.984h9.76c-.022-.96-.235-1.803-.64-2.528a4.385 4.385 0 0 0-1.664-1.696c-.683-.405-1.505-.608-2.465-.608-1.045 0-1.93.224-2.656.672a4.617 4.617 0 0 0-1.632 1.76 6.404 6.404 0 0 0-.703 2.4Zm12.391 2.016v-2.496h9.92v2.496h-9.92Zm18.4 7.968a8.559 8.559 0 0 1-2.144-.256 6.951 6.951 0 0 1-1.76-.8 6.524 6.524 0 0 1-1.343-1.184L63.797 23h-2.592V.376h2.72v8.192c.555-.853 1.344-1.504 2.368-1.952a8.052 8.052 0 0 1 3.2-.672c1.707 0 3.105.384 4.192 1.152 1.088.747 1.888 1.77 2.4 3.072.534 1.28.8 2.73.8 4.352 0 1.6-.277 3.061-.831 4.384-.555 1.301-1.398 2.347-2.529 3.136-1.13.768-2.58 1.152-4.352 1.152Zm-.032-2.4c1.238 0 2.22-.277 2.945-.832.725-.576 1.248-1.333 1.567-2.272.342-.939.513-1.973.513-3.104 0-1.152-.171-2.197-.513-3.136-.32-.939-.853-1.685-1.6-2.24-.746-.555-1.738-.832-2.975-.832-1.11 0-2.06.31-2.848.928-.768.619-1.355 1.408-1.76 2.368a7.503 7.503 0 0 0-.609 2.944c0 1.088.171 2.101.512 3.04.363.939.928 1.696 1.697 2.272.789.576 1.813.864 3.072.864Zm14.737 2.4c-1.77 0-3.253-.363-4.448-1.088a6.97 6.97 0 0 1-2.688-3.072c-.576-1.301-.864-2.784-.864-4.448 0-1.685.299-3.168.896-4.448a6.969 6.969 0 0 1 2.688-3.072c1.195-.747 2.688-1.12 4.48-1.12 1.77 0 3.243.373 4.416 1.12a6.773 6.773 0 0 1 2.656 3.072c.597 1.28.896 2.763.896 4.448 0 1.664-.299 3.147-.896 4.448a6.97 6.97 0 0 1-2.688 3.072c-1.173.725-2.656 1.088-4.448 1.088Zm0-2.4c1.237 0 2.24-.277 3.008-.832.79-.555 1.365-1.301 1.728-2.24.384-.939.576-1.984.576-3.136 0-1.152-.192-2.197-.576-3.136-.363-.939-.939-1.685-1.728-2.24-.768-.555-1.77-.832-3.008-.832-1.216 0-2.219.277-3.008.832-.768.555-1.344 1.301-1.728 2.24-.363.939-.544 1.984-.544 3.136 0 1.152.181 2.197.544 3.136.384.939.96 1.685 1.728 2.24.79.555 1.792.832 3.008.832Zm14.007 2.4c-1.77 0-3.018-.48-3.744-1.44-.704-.96-1.056-2.325-1.056-4.096v-9.12h-2.752v-2.4h2.752V1.08h2.72v5.056h5.184v2.4h-5.184v8.768c0 .64.054 1.227.16 1.76.107.512.33.928.672 1.248.342.299.854.459 1.536.48.49 0 .918-.085 1.28-.256.384-.17.704-.373.96-.608l1.184 1.984a5.504 5.504 0 0 1-1.152.736c-.384.192-.79.33-1.216.416a6.54 6.54 0 0 1-1.344.128Zm8.688 0c-1.771 0-3.019-.48-3.744-1.44-.704-.96-1.056-2.325-1.056-4.096v-9.12h-2.752v-2.4h2.752V1.08h2.72v5.056h5.184v2.4h-5.184v8.768c0 .64.053 1.227.16 1.76.106.512.33.928.672 1.248.341.299.853.459 1.536.48.49 0 .917-.085 1.28-.256.384-.17.704-.373.96-.608l1.184 1.984a5.556 5.556 0 0 1-1.152.736c-.384.192-.79.33-1.216.416a6.547 6.547 0 0 1-1.344.128Zm9.647 0c-1.792 0-3.274-.363-4.448-1.088-1.173-.747-2.048-1.77-2.624-3.072-.576-1.301-.864-2.784-.864-4.448 0-1.685.299-3.168.896-4.448.619-1.301 1.515-2.325 2.688-3.072 1.174-.747 2.614-1.12 4.32-1.12 1.323 0 2.454.256 3.392.768a6.7 6.7 0 0 1 2.368 1.984 8.252 8.252 0 0 1 1.344 2.752c.278.981.395 1.973.352 2.976l-.064.576c0 .192-.01.384-.032.576h-12.512c.086.981.331 1.867.736 2.656.406.79.982 1.419 1.728 1.888.747.448 1.675.672 2.784.672.555 0 1.11-.064 1.664-.192a4.275 4.275 0 0 0 1.536-.736c.47-.341.8-.8.992-1.376h2.784c-.256 1.088-.736 1.984-1.44 2.688a6.768 6.768 0 0 1-2.528 1.536c-.981.32-2.005.48-3.072.48Zm-5.12-9.984h9.76c-.021-.96-.234-1.803-.64-2.528a4.383 4.383 0 0 0-1.664-1.696c-.682-.405-1.504-.608-2.464-.608-1.045 0-1.93.224-2.656.672a4.617 4.617 0 0 0-1.632 1.76 6.417 6.417 0 0 0-.704 2.4Zm19.496 17.344c-1.152 0-2.219-.181-3.2-.544a5.995 5.995 0 0 1-2.496-1.632c-.683-.747-1.141-1.696-1.376-2.848h2.816c.171.64.491 1.152.96 1.536a4.03 4.03 0 0 0 1.632.8c.619.17 1.227.256 1.824.256 1.152 0 2.08-.235 2.784-.704a3.797 3.797 0 0 0 1.568-1.888c.32-.79.48-1.696.48-2.72v-2.336a4.625 4.625 0 0 1-1.44 1.568 6.492 6.492 0 0 1-1.952.896 9.2 9.2 0 0 1-2.176.256c-1.707 0-3.104-.373-4.192-1.12-1.088-.768-1.899-1.792-2.432-3.072-.512-1.301-.768-2.763-.768-4.384 0-1.621.267-3.083.8-4.384.533-1.323 1.355-2.368 2.464-3.136 1.109-.768 2.528-1.152 4.256-1.152a8.71 8.71 0 0 1 2.976.544 5.418 5.418 0 0 1 2.464 1.76l.128-2.112h2.592v16.736c0 1.579-.288 2.944-.864 4.096-.555 1.152-1.408 2.037-2.56 2.656-1.131.619-2.56.928-4.288.928Zm-.192-9.76c1.131 0 2.08-.288 2.848-.864.768-.576 1.355-1.344 1.76-2.304.405-.96.608-2.005.608-3.136 0-1.173-.203-2.219-.608-3.136-.384-.917-.96-1.643-1.728-2.176-.768-.533-1.739-.8-2.912-.8-1.216 0-2.197.277-2.944.832-.725.555-1.259 1.301-1.6 2.24-.32.939-.48 1.984-.48 3.136 0 1.195.171 2.261.512 3.2.341.939.885 1.675 1.632 2.208.747.533 1.717.8 2.912.8Zm13.585 2.4a8.715 8.715 0 0 1-2.24-.288 6.674 6.674 0 0 1-1.92-.928 5 5 0 0 1-1.344-1.568c-.32-.64-.48-1.376-.48-2.208 0-.96.17-1.77.512-2.432a4.247 4.247 0 0 1 1.44-1.568c.597-.384 1.29-.661 2.08-.832a11.62 11.62 0 0 1 2.464-.256h4.96c0-.96-.139-1.792-.416-2.496-.256-.704-.683-1.248-1.28-1.632-.598-.405-1.387-.608-2.368-.608-.598 0-1.152.064-1.664.192s-.95.33-1.312.608a2.4 2.4 0 0 0-.8 1.12h-2.912c.149-.768.437-1.419.864-1.952a5.376 5.376 0 0 1 1.6-1.344 7.708 7.708 0 0 1 2.048-.8 9.465 9.465 0 0 1 2.176-.256c2.432 0 4.16.715 5.184 2.144 1.024 1.43 1.536 3.36 1.536 5.792V23h-2.272l-.16-2.144a4.857 4.857 0 0 1-1.696 1.472 6.605 6.605 0 0 1-2.048.672 10.61 10.61 0 0 1-1.952.192Zm.256-2.4c1.066 0 1.984-.17 2.752-.512.789-.363 1.397-.885 1.824-1.568.426-.683.64-1.515.64-2.496v-.832h-2.976c-.704 0-1.398.01-2.08.032a8.113 8.113 0 0 0-1.856.256c-.555.15-1.003.405-1.344.768-.32.363-.48.885-.48 1.568 0 .64.16 1.163.48 1.568.341.405.778.715 1.312.928a5.24 5.24 0 0 0 1.728.288Z"/></svg>